<svg width="147" height="17" viewBox="0 0 147 17" fill="none" xmlns="http://www.w3.org/2000/svg">
<path d="M143.565 10.0103C145.214 10.1061 146.466 11.53 146.351 13.1771C146.236 14.8242 144.797 16.0599 143.152 15.9254L1.89849 4.37996C1.18835 4.32191 0.65703 3.70341 0.706733 2.99263C0.756435 2.28186 1.36866 1.74332 2.07997 1.78467L143.565 10.0103Z" fill="#222222"/>
<mask id="mask0_1_360" style="mask-type:alpha" maskUnits="userSpaceOnUse" x="0" y="1" width="147" height="15">
<path d="M143.565 10.0103C145.214 10.1061 146.466 11.53 146.351 13.1771C146.236 14.8242 144.797 16.0599 143.152 15.9254L1.89849 4.37996C1.18835 4.32191 0.65703 3.70341 0.706733 2.99263C0.756435 2.28186 1.36866 1.74332 2.07997 1.78467L143.565 10.0103Z" fill="#D0D0D0"/>
</mask>
<g mask="url(#mask0_1_360)">
<rect width="15.215" height="1.93254" transform="matrix(-0.615156 0.788406 -0.863136 -0.504972 143.747 7.41014)" fill="#575757"/>
<rect width="15.215" height="1.93254" transform="matrix(-0.615156 0.788406 -0.863136 -0.504972 111.825 5.17764)" fill="#575757"/>
<rect width="15.215" height="1.93254" transform="matrix(-0.615156 0.788406 -0.863136 -0.504972 127.786 6.29376)" fill="#575757"/>
<rect width="15.215" height="1.93254" transform="matrix(-0.615156 0.788406 -0.863136 -0.504972 95.8639 4.06154)" fill="#575757"/>
<rect width="15.215" height="1.93254" transform="matrix(-0.615156 0.788406 -0.863136 -0.504972 135.766 6.85182)" fill="#575757"/>
<rect width="15.215" height="1.93254" transform="matrix(-0.615156 0.788406 -0.863136 -0.504972 103.844 4.61958)" fill="#575757"/>
<rect width="15.215" height="1.93254" transform="matrix(-0.615156 0.788406 -0.863136 -0.504972 119.805 5.73572)" fill="#575757"/>
<rect width="15.215" height="1.93254" transform="matrix(-0.615156 0.788406 -0.863136 -0.504972 87.8834 3.50348)" fill="#575757"/>
<rect width="15.215" height="1.93254" transform="matrix(-0.615156 0.788406 -0.863136 -0.504972 139.757 7.13081)" fill="#575757"/>
<rect width="15.215" height="1.93254" transform="matrix(-0.615156 0.788406 -0.863136 -0.504972 107.835 4.89893)" fill="#575757"/>
<rect width="15.215" height="1.93254" transform="matrix(-0.615156 0.788406 -0.863136 -0.504972 123.796 6.01505)" fill="#575757"/>
<rect width="15.215" height="1.93254" transform="matrix(-0.615156 0.788406 -0.863136 -0.504972 91.8738 3.78282)" fill="#575757"/>
<rect width="15.215" height="1.93254" transform="matrix(-0.615156 0.788406 -0.863136 -0.504972 131.776 6.57275)" fill="#575757"/>
<rect width="15.215" height="1.93254" transform="matrix(-0.615156 0.788406 -0.863136 -0.504972 99.8543 4.34088)" fill="#575757"/>
<rect width="15.215" height="1.93254" transform="matrix(-0.615156 0.788406 -0.863136 -0.504972 115.815 5.45699)" fill="#575757"/>
<rect width="15.215" height="1.93254" transform="matrix(-0.615156 0.788406 -0.863136 -0.504972 83.8933 3.22478)" fill="#575757"/>
<rect width="15.215" height="1.93254" transform="matrix(-0.499444 -0.866346 -0.925014 0.379933 142.926 19.1433)" fill="#898989"/>
<rect width="15.215" height="1.93254" transform="matrix(-0.499444 -0.866346 -0.925014 0.379933 111.005 16.9112)" fill="#898989"/>
<rect width="15.215" height="1.93254" transform="matrix(-0.499444 -0.866346 -0.925014 0.379933 126.965 18.0272)" fill="#898989"/>
<rect width="15.215" height="1.93254" transform="matrix(-0.499444 -0.866346 -0.925014 0.379933 95.0435 15.7951)" fill="#898989"/>
<rect width="15.215" height="1.93254" transform="matrix(-0.499444 -0.866346 -0.925014 0.379933 134.946 18.5853)" fill="#898989"/>
<rect width="15.215" height="1.93254" transform="matrix(-0.499444 -0.866346 -0.925014 0.379933 103.024 16.3531)" fill="#898989"/>
<rect width="15.215" height="1.93254" transform="matrix(-0.499444 -0.866346 -0.925014 0.379933 118.985 17.4693)" fill="#898989"/>
<rect width="15.215" height="1.93254" transform="matrix(-0.499444 -0.866346 -0.925014 0.379933 87.063 15.237)" fill="#898989"/>
<rect width="15.215" height="1.93254" transform="matrix(-0.499444 -0.866346 -0.925014 0.379933 138.936 18.8644)" fill="#898989"/>
<rect width="15.215" height="1.93254" transform="matrix(-0.499444 -0.866346 -0.925014 0.379933 107.014 16.6321)" fill="#898989"/>
<rect width="15.215" height="1.93254" transform="matrix(-0.499444 -0.866346 -0.925014 0.379933 122.975 17.7483)" fill="#898989"/>
<rect width="15.215" height="1.93254" transform="matrix(-0.499444 -0.866346 -0.925014 0.379933 91.0532 15.516)" fill="#898989"/>
<rect width="15.215" height="1.93254" transform="matrix(-0.499444 -0.866346 -0.925014 0.379933 130.956 18.3063)" fill="#898989"/>
<rect width="15.215" height="1.93254" transform="matrix(-0.499444 -0.866346 -0.925014 0.379933 99.0337 16.0741)" fill="#898989"/>
<rect width="15.215" height="1.93254" transform="matrix(-0.499444 -0.866346 -0.925014 0.379933 114.995 17.1902)" fill="#898989"/>
<rect width="15.215" height="1.93254" transform="matrix(-0.499444 -0.866346 -0.925014 0.379933 83.0727 14.958)" fill="#898989"/>
</g>
</svg>
