<svg width="146" height="7" viewBox="0 0 146 7" fill="none" xmlns="http://www.w3.org/2000/svg">
<path d="M143 0.775335C144.651 0.755949 146 2.08899 146 3.74011C146 5.39124 144.651 6.72428 143 6.70489L1.28563 5.04092C0.573166 5.03256 0 4.45262 0 3.74011C0 3.0276 0.573166 2.44767 1.28563 2.4393L143 0.775335Z" fill="#222222"/>
<mask id="mask0_1_321" style="mask-type:alpha" maskUnits="userSpaceOnUse" x="0" y="0" width="146" height="7">
<path d="M143 0.775335C144.651 0.755949 146 2.08899 146 3.74011C146 5.39124 144.651 6.72428 143 6.70489L1.28563 5.04092C0.573166 5.03256 0 4.45262 0 3.74011C0 3.0276 0.573166 2.44767 1.28563 2.4393L143 0.775335Z" fill="#D0D0D0"/>
</mask>
<g mask="url(#mask0_1_321)">
<rect width="15.215" height="1.93254" transform="matrix(-0.558661 0.829396 -0.896258 -0.443533 143 -1.83131)" fill="#575757"/>
<rect width="15.215" height="1.93254" transform="matrix(-0.558661 0.829396 -0.896258 -0.443533 111 -1.83138)" fill="#575757"/>
<rect width="15.215" height="1.93254" transform="matrix(-0.558661 0.829396 -0.896258 -0.443533 127 -1.8313)" fill="#575757"/>
<rect width="15.215" height="1.93254" transform="matrix(-0.558661 0.829396 -0.896258 -0.443533 95 -1.83138)" fill="#575757"/>
<rect width="15.215" height="1.93254" transform="matrix(-0.558661 0.829396 -0.896258 -0.443533 135 -1.83131)" fill="#575757"/>
<rect width="15.215" height="1.93254" transform="matrix(-0.558661 0.829396 -0.896258 -0.443533 103 -1.83138)" fill="#575757"/>
<rect width="15.215" height="1.93254" transform="matrix(-0.558661 0.829396 -0.896258 -0.443533 119 -1.83138)" fill="#575757"/>
<rect width="15.215" height="1.93254" transform="matrix(-0.558661 0.829396 -0.896258 -0.443533 87 -1.83136)" fill="#575757"/>
<rect width="15.215" height="1.93254" transform="matrix(-0.558661 0.829396 -0.896258 -0.443533 139 -1.83134)" fill="#575757"/>
<rect width="15.215" height="1.93254" transform="matrix(-0.558661 0.829396 -0.896258 -0.443533 107 -1.83133)" fill="#575757"/>
<rect width="15.215" height="1.93254" transform="matrix(-0.558661 0.829396 -0.896258 -0.443533 123 -1.83134)" fill="#575757"/>
<rect width="15.215" height="1.93254" transform="matrix(-0.558661 0.829396 -0.896258 -0.443533 91 -1.83133)" fill="#575757"/>
<rect width="15.215" height="1.93254" transform="matrix(-0.558661 0.829396 -0.896258 -0.443533 131 -1.83134)" fill="#575757"/>
<rect width="15.215" height="1.93254" transform="matrix(-0.558661 0.829396 -0.896258 -0.443533 99 -1.83133)" fill="#575757"/>
<rect width="15.215" height="1.93254" transform="matrix(-0.558661 0.829396 -0.896258 -0.443533 115 -1.83134)" fill="#575757"/>
<rect width="15.215" height="1.93254" transform="matrix(-0.558661 0.829396 -0.896258 -0.443533 83 -1.83133)" fill="#575757"/>
<rect width="15.215" height="1.93254" transform="matrix(-0.558661 -0.829396 -0.896258 0.443533 143 9.93066)" fill="#898989"/>
<rect width="15.215" height="1.93254" transform="matrix(-0.558661 -0.829396 -0.896258 0.443533 111 9.93068)" fill="#898989"/>
<rect width="15.215" height="1.93254" transform="matrix(-0.558661 -0.829396 -0.896258 0.443533 127 9.93066)" fill="#898989"/>
<rect width="15.215" height="1.93254" transform="matrix(-0.558661 -0.829396 -0.896258 0.443533 95.0001 9.93068)" fill="#898989"/>
<rect width="15.215" height="1.93254" transform="matrix(-0.558661 -0.829396 -0.896258 0.443533 135 9.93066)" fill="#898989"/>
<rect width="15.215" height="1.93254" transform="matrix(-0.558661 -0.829396 -0.896258 0.443533 103 9.93068)" fill="#898989"/>
<rect width="15.215" height="1.93254" transform="matrix(-0.558661 -0.829396 -0.896258 0.443533 119 9.93066)" fill="#898989"/>
<rect width="15.215" height="1.93254" transform="matrix(-0.558661 -0.829396 -0.896258 0.443533 87.0001 9.93069)" fill="#898989"/>
<rect width="15.215" height="1.93254" transform="matrix(-0.558661 -0.829396 -0.896258 0.443533 139 9.93069)" fill="#898989"/>
<rect width="15.215" height="1.93254" transform="matrix(-0.558661 -0.829396 -0.896258 0.443533 107 9.93073)" fill="#898989"/>
<rect width="15.215" height="1.93254" transform="matrix(-0.558661 -0.829396 -0.896258 0.443533 123 9.93071)" fill="#898989"/>
<rect width="15.215" height="1.93254" transform="matrix(-0.558661 -0.829396 -0.896258 0.443533 91 9.93073)" fill="#898989"/>
<rect width="15.215" height="1.93254" transform="matrix(-0.558661 -0.829396 -0.896258 0.443533 131 9.93071)" fill="#898989"/>
<rect width="15.215" height="1.93254" transform="matrix(-0.558661 -0.829396 -0.896258 0.443533 99 9.93073)" fill="#898989"/>
<rect width="15.215" height="1.93254" transform="matrix(-0.558661 -0.829396 -0.896258 0.443533 115 9.93071)" fill="#898989"/>
<rect width="15.215" height="1.93254" transform="matrix(-0.558661 -0.829396 -0.896258 0.443533 83 9.93073)" fill="#898989"/>
</g>
</svg>
