<?xml version="1.0" encoding="UTF-8" standalone="no"?>
<!-- Created with Inkscape (http://www.inkscape.org/) -->
<svg
   xmlns:svg="http://www.w3.org/2000/svg"
   xmlns="http://www.w3.org/2000/svg"
   version="1.0"
   width="744.09448"
   height="625.74799"
   id="svg7965">
  <defs
     id="defs7967" />
  <g
     transform="translate(-21.313263,-264.66679)"
     id="layer1">
    <g
       transform="matrix(4.5030555,0,0,4.5030555,161.7748,-1124.9585)"
       id="g7978">
      <path
         d="M -22.018054,443.63118 L 40.409922,410.66905 C 44.013031,410.98953 47.691209,411.15409 51.427136,411.15409 C 94.886791,411.15409 130.1153,389.07347 130.1153,361.83936 C 130.1153,334.59948 94.886791,312.52175 51.427136,312.52175 C 7.9703514,312.52175 -27.25816,334.59948 -27.25816,361.83936 C -27.25816,380.30244 -11.067249,396.3923 12.898651,404.85152 L -22.018054,443.63118"
         style="fill:#df0038;fill-rule:nonzero;stroke:none"
         id="path40" />
      <path
         d="M 23.85235,339.34012 L 8.4236356,339.34012 L 9.1742782,343.63615 L 10.505234,343.68522 C 12.488678,343.7574 13.1354,343.91908 13.288409,343.96527 C 13.707042,344.0952 13.733022,344.23954 13.761896,344.40411 C 13.767673,344.42144 13.770556,344.45896 13.770556,344.51671 C 13.770556,344.7881 13.666624,345.54164 12.843796,347.12377 C 12.338552,348.10538 11.457986,349.57492 10.29737,351.37648 C 10.29737,351.37648 8.0107799,354.90742 6.3737832,357.43652 C 4.7541177,353.91425 1.2000859,346.17679 1.2000859,346.17679 C 1.2000859,346.17679 1.1740946,346.12194 1.1654345,346.1104 C 1.1163571,346.02089 0.98355095,345.72064 0.7843361,345.21539 C 0.538938,344.56867 0.46964637,344.30595 0.45232625,344.21067 C 0.4378891,344.13561 0.4378891,344.0952 0.4378891,344.06054 C 0.46386927,344.049 0.49274358,344.03167 0.54470392,344.01147 C 0.66596708,343.96527 1.2924748,343.77472 3.1864126,343.68522 L 5.0457102,343.59283 L 4.2950676,339.34012 L -14.563532,339.34012 L -13.801335,343.54664 L -12.574323,343.67945 C -10.564887,343.8902 -9.9701482,344.23377 -9.8690993,344.30306 C -9.8113507,344.34637 -9.2974461,344.765 -8.2436567,347.01984 C -8.2436567,347.01984 -0.67942596,363.27714 -0.30698761,364.08265 C -0.40225942,364.94012 -1.8256042,377.40378 -1.8256042,377.40378 C -1.9872846,378.82712 -2.4145775,379.74811 -3.0872796,380.14076 C -3.2980374,380.25624 -4.0775544,380.57671 -6.3410476,380.75282 L -8.1599279,380.88852 L -7.4035082,385.08638 L 14.783928,385.08638 L 14.010189,380.78169 L 12.670573,380.74705 C 9.9768924,380.67198 8.8913458,380.42658 8.481373,380.28511 C 8.2273037,380.1985 8.0425372,379.84627 7.9357112,379.24864 C 7.9039539,379.07252 7.8519824,378.68566 7.8519824,378.03893 C 7.8519824,377.48461 7.909731,376.71953 8.0165458,375.82164 C 8.0165458,375.81587 9.1800553,366.10363 9.4139104,364.14617 C 9.7950088,363.54276 20.335841,346.8264 20.335841,346.8264 C 21.453156,345.03639 22.065227,344.45608 22.281762,344.28574 C 22.498297,344.12118 23.038181,343.81803 24.242108,343.67367 L 25.971483,343.46869 L 25.232383,339.34012 L 23.85235,339.34012"
         style="fill:#ffffff;fill-rule:nonzero;stroke:none"
         id="path44" />
      <path
         d="M 29.121319,353.02214 L 29.193493,353.00481 L 24.305623,353.95756 C 24.285408,353.96334 18.216708,355.20768 18.216708,355.20768 L 18.886516,359.02732 L 20.269444,359.02732 C 21.845809,359.02732 22.489625,359.14858 22.720597,359.21209 C 22.752355,359.2785 22.801432,359.40265 22.841861,359.64228 L 22.864958,359.91367 C 22.864958,359.91367 22.859181,360.3756 22.859181,360.4218 C 22.850521,360.51996 21.554205,378.25547 21.554205,378.25547 C 21.554205,378.25547 21.539768,379.46229 21.539768,379.49693 C 21.542662,379.86071 21.588856,380.28511 21.684128,380.83366 C 22.137401,383.40896 23.624261,384.63021 24.793547,385.20763 C 25.662559,385.6176 26.563339,385.81682 27.49877,385.81682 C 30.657267,385.81682 33.581908,383.83048 36.191848,379.9069 C 36.668229,379.17069 37.190794,378.26702 37.750893,377.21034 C 37.693144,377.82529 37.658504,378.42003 37.658504,378.96571 C 37.658504,379.04654 37.658504,379.12737 37.661387,379.20244 C 37.667164,379.91845 37.724913,380.61713 37.840388,381.27828 C 38.106011,382.79113 38.764265,383.94019 39.794968,384.6995 C 40.747709,385.41839 41.896781,385.78217 43.19598,385.78217 C 45.551862,385.78217 47.760501,384.36748 49.761264,381.57565 C 50.670705,380.32554 51.49065,378.856 52.249953,377.10351 L 52.818712,375.78411 L 49.215603,373.60723 L 46.983867,377.08908 C 46.40067,378.02161 46.129281,378.37095 46.083087,378.42581 C 46.045563,378.472 46.016689,378.50088 45.982038,378.54418 C 45.999369,378.2728 46.019572,378.00718 46.019572,378.00718 C 46.016689,378.02451 48.046327,355.49927 48.046327,355.49927 L 48.210891,353.70637 L 40.239581,353.70637 L 39.994172,355.06044 C 39.364781,358.5394 38.850877,361.12336 38.461118,362.74592 C 37.863485,365.22883 37.101288,367.5443 36.197625,369.62591 C 35.181359,371.94136 33.954346,374.19043 32.548321,376.29802 C 30.896899,378.77804 29.987459,378.90218 29.822884,378.90218 C 29.770924,378.90218 29.750709,378.89641 29.750709,378.89641 C 29.747826,378.89641 29.730506,378.87909 29.721835,378.87332 C 29.716069,378.85888 29.692972,378.8098 29.675641,378.71741 C 29.675641,378.69142 29.678535,378.43736 29.678535,378.43736 C 29.681418,378.41715 29.770924,377.28541 29.770924,377.28541 C 29.773807,377.25365 31.592687,355.61188 31.592687,355.61188 L 31.610007,355.09219 L 31.610007,355.06332 C 31.610007,354.5292 31.390589,354.00952 30.992171,353.60244 L 30.97485,353.57934 L 30.954636,353.55914 C 30.215537,352.8518 29.424465,352.94707 29.121319,353.02214"
         style="fill:#ffffff;fill-rule:nonzero;stroke:none"
         id="path48" />
      <path
         d="M 63.492361,353.07699 C 58.956715,354.12212 55.622101,354.82658 53.578026,355.15571 L 51.929486,355.4242 L 52.67148,359.55567 L 54.10059,359.5037 C 55.821316,359.4344 56.543084,359.52679 56.811591,359.57587 C 56.831805,359.62496 56.852008,359.69713 56.872222,359.80396 C 56.889542,359.90789 56.895319,360.01182 56.895319,360.1533 C 56.895319,360.19372 56.860668,360.67875 56.860668,360.67875 C 56.860668,360.6903 54.475923,385.08638 54.475923,385.08638 L 62.617573,385.08638 L 62.810999,383.66592 C 63.301818,380.11188 63.720439,377.36336 64.055343,375.49829 C 64.592356,372.53033 65.288145,370.13981 66.12541,368.39022 C 67.014636,366.49917 68.212786,364.48973 69.690985,362.41102 C 71.423253,359.94831 72.433743,359.75487 72.702238,359.75487 C 72.716675,359.75487 72.708015,359.76065 72.725335,359.76065 C 72.745549,359.80972 72.771529,359.89057 72.794627,360.0176 L 72.817724,360.28611 C 72.817724,360.28611 72.811947,360.7134 72.806181,360.74226 C 72.800404,360.82599 70.600425,385.08638 70.600425,385.08638 L 78.820027,385.08638 L 78.961493,383.59085 C 79.440757,378.42293 79.795875,375.21246 80.041274,373.75736 C 80.269352,372.35422 80.80347,370.58154 81.620522,368.48838 C 82.584816,366.38945 83.797403,364.30207 85.226525,362.27821 C 86.36116,360.6672 87.435164,359.77508 88.252215,359.76353 C 88.263758,359.77508 88.29841,359.84148 88.321507,359.98007 L 88.33305,360.0407 L 88.341721,360.21392 L 88.321507,360.74226 C 88.32439,360.71916 86.883725,378.50088 86.883725,378.50088 L 86.875065,378.55285 L 86.880842,378.5413 L 86.84619,379.88091 C 86.863511,380.34286 86.903939,380.74705 86.973231,381.13969 C 87.290803,382.9066 88.055894,384.19714 89.25115,385.00265 C 90.073978,385.52521 90.980536,385.78217 91.976587,385.78217 C 93.905177,385.78217 95.712503,384.97955 97.3495,383.39742 C 98.798824,381.9914 100.14711,380.11188 101.3597,377.82241 C 101.3568,377.82818 101.59066,377.38646 101.59066,377.38646 L 102.28934,376.09014 L 98.553426,373.52638 L 96.113815,377.32293 C 96.113815,377.32293 95.891503,377.66073 95.865523,377.70403 C 95.660542,378.00429 95.41225,378.33342 95.132201,378.6741 C 95.132201,378.67988 95.126424,378.68276 95.126424,378.68854 C 95.316967,376.67045 96.63638,362.48897 96.63638,362.48897 L 96.642157,362.45143 C 96.685457,361.42074 96.702789,360.67875 96.702789,360.1302 C 96.702789,359.31892 96.665254,358.94071 96.61906,358.68664 C 96.281262,356.7465 95.44689,355.29429 94.139032,354.35886 C 92.917785,353.48407 91.615703,353.03657 90.273193,353.03657 C 87.345658,353.03657 84.539397,354.9334 81.707133,358.83389 L 81.701368,358.83389 C 81.455958,359.17745 81.204783,359.55277 80.947831,359.94831 C 80.942054,359.42863 80.907413,358.96381 80.838122,358.56538 C 80.485887,356.51554 79.486952,354.9334 77.953898,353.98066 C 76.934749,353.35127 75.840531,353.03657 74.700119,353.03657 C 71.931381,353.03657 69.275246,354.76595 66.5758,358.32864 L 66.555586,358.3604 C 66.119633,358.96669 65.677903,359.60474 65.239067,360.28611 C 65.507562,357.79164 65.894438,354.14522 65.894438,354.14522 L 64.231461,352.90665 L 63.492361,353.07699"
         style="fill:#ffffff;fill-rule:nonzero;stroke:none"
         id="path52" />
      <path
         d="M 107.90189,341.10415 L 107.89611,341.11569 C 107.29559,342.50151 107.02132,344.62642 107.05596,347.61458 L 107.1137,353.49562 C 107.11947,353.86517 107.0906,355.63786 106.91738,362.04435 L 106.60557,373.0529 L 107.9654,373.32718 L 110.6533,373.86418 L 112.85039,363.40129 C 113.76561,359.10528 114.15825,357.42498 114.31993,356.77249 C 115.75771,351.2148 116.56032,347.91484 116.76532,346.69936 C 116.99051,345.34531 116.99917,344.0692 116.78841,342.89415 C 116.59786,341.72776 116.05797,340.68551 115.18606,339.81361 C 114.27085,338.88107 113.11023,338.38449 111.85434,338.38449 C 110.07877,338.38449 108.67852,339.35167 107.90189,341.10415 z M 103.84261,377.3749 L 103.84261,377.38068 C 103.04866,378.43159 102.73973,379.63262 102.95049,380.85964 C 103.24498,382.44755 103.96098,383.69479 105.09273,384.5667 C 106.1956,385.41839 107.3822,385.84568 108.61501,385.84568 C 110.08743,385.84568 111.32311,385.27404 112.1979,384.19714 C 113.05826,383.13469 113.39028,381.8326 113.15065,380.43235 C 112.91102,379.0552 112.16614,377.86283 111.00264,376.97937 C 109.85935,376.11902 108.66408,375.69172 107.43418,375.69172 C 105.53157,375.69172 104.42869,376.60405 103.84261,377.3749"
         style="fill:#ffffff;fill-rule:nonzero;stroke:none"
         id="path56" />
    </g>
  </g>
</svg>
