<?xml version="1.0" encoding="UTF-8" standalone="no"?>
<svg
   width="146"
   height="146"
   viewBox="0 0 146 146"
   fill="none"
   version="1.1"
   id="svg1"
   xml:space="preserve"
   xmlns="http://www.w3.org/2000/svg"
   xmlns:svg="http://www.w3.org/2000/svg"><defs
     id="defs1" /><rect
     x="0"
     width="146"
     height="146"
     rx="2"
     fill="#df4a4a"
     id="rect1"
     y="0" /><g
     style="fill:none"
     id="g1"
     transform="translate(21.469299,19.220859)"><path
       d="M 15.1375,45 V 28.44 C 12.2095,23.64 9.54547,18.96 7.14547,14.4 4.79347,9.84 2.72947,5.184 0.953468,0.431999 H 7.57747 C 8.96947,4.464 10.5535,8.328 12.3295,12.024 c 1.824,3.648 3.768,7.416 5.832,11.304 2.208,-4.08 4.152,-7.944 5.832,-11.592 1.728,-3.696 3.288,-7.464 4.68,-11.304001 h 6.48 C 33.3295,5.136 31.2415,9.72 28.8895,14.184 c -2.352,4.464 -4.968,9.168 -7.848,14.112 V 45 Z m 66.96,0 V 28.44 c -2.928,-4.8 -5.592,-9.48 -7.992,-14.04 -2.352,-4.56 -4.416,-9.216 -6.192,-13.968001 h 6.624 C 75.9295,4.464 77.5135,8.328 79.2895,12.024 c 1.824,3.648 3.768,7.416 5.832,11.304 2.208,-4.08 4.152,-7.944 5.832,-11.592 1.728,-3.696 3.288,-7.464 4.68,-11.304001 h 6.4795 C 100.289,5.136 98.2015,9.72 95.8495,14.184 c -2.352,4.464 -4.968,9.168 -7.848,14.112 V 45 Z m -55.224,39.04 h 5.904 v 20.88 c -0.912,0.336 -2.376,0.744 -4.392,1.224 -2.016,0.528 -4.392,0.792 -7.128,0.792 -2.688,0 -5.136,-0.504 -7.344,-1.512 -2.208,-1.056 -4.10403,-2.568 -5.68803,-4.536 -1.536,-1.968 -2.736,-4.392 -3.6,-7.272 -0.864,-2.928 -1.296,-6.24 -1.296,-9.936 0,-3.744 0.48,-7.056 1.44,-9.936 0.96,-2.88 2.256,-5.304 3.888,-7.272 1.68003,-1.968 3.62403,-3.456 5.83203,-4.464 2.208,-1.056 4.584,-1.584 7.128,-1.584 1.632,0 3.072,0.12 4.32,0.36 1.248,0.24 2.304,0.528 3.168,0.864 0.912,0.336 1.656,0.696 2.232,1.08 0.576,0.336 1.008,0.6 1.296,0.792 l -1.944,4.968 c -1.104,-0.864 -2.424,-1.56 -3.96,-2.088 -1.488,-0.576 -3.072,-0.864 -4.752,-0.864 -1.824,0 -3.528,0.432 -5.112,1.296 -1.536,0.864 -2.856,2.088 -3.96,3.672 -1.104,1.584 -1.968,3.504 -2.592,5.76 -0.62403,2.208 -0.93603,4.68 -0.93603,7.416 0,2.688 0.264,5.136 0.79203,7.344 0.576,2.208 1.392,4.104 2.448,5.688 1.056,1.584 2.352,2.832 3.888,3.744 1.584,0.864 3.384,1.296 5.4,1.296 1.392,0 2.472,-0.096 3.24,-0.288 0.768,-0.192 1.344,-0.384 1.728,-0.576 z m 56.952,17.784 c 3.024,0 5.328,-0.576 6.912,-1.728 1.584,-1.152 2.376,-2.88 2.376,-5.184 0,-1.392 -0.288,-2.568 -0.864,-3.528 -0.576,-1.008 -1.344,-1.872 -2.304,-2.592 -0.96,-0.768 -2.04,-1.416 -3.24,-1.944 -1.2,-0.576 -2.424,-1.104 -3.672,-1.584 -1.44,-0.576 -2.832,-1.224 -4.176,-1.944 -1.296,-0.72 -2.472,-1.56 -3.528,-2.52 -1.008,-0.96 -1.824,-2.088 -2.448,-3.384 -0.576,-1.296 -0.864,-2.832 -0.864,-4.608 0,-3.888 1.224,-6.912 3.672,-9.072 2.448,-2.208 5.856,-3.312 10.224,-3.312 1.2,0 2.376,0.096 3.528,0.288 1.2,0.144 2.304,0.336 3.312,0.576 1.008,0.24 1.896,0.528 2.664,0.864 0.816,0.336 1.464,0.672 1.944,1.008 l -1.872,4.968 c -0.96,-0.576 -2.28,-1.152 -3.96,-1.728 -1.68,-0.576 -3.552,-0.864 -5.616,-0.864 -2.16,0 -4.032,0.552 -5.616,1.656 -1.584,1.056 -2.376,2.664 -2.376,4.824 0,1.248 0.216,2.304 0.648,3.168 0.48,0.864 1.104,1.632 1.872,2.304 0.816,0.624 1.752,1.2 2.808,1.728 1.056,0.528 2.208,1.056 3.456,1.584 1.824,0.768 3.48,1.536 4.968,2.304 1.536,0.768 2.832,1.68 3.888,2.736 1.104,1.056 1.944,2.304 2.52,3.744 0.624,1.44 0.936,3.192 0.936,5.256 0,3.888 -1.32,6.888 -3.96,9 -2.592,2.064 -6.336,3.096 -11.232,3.096 -1.584,0 -3.072,-0.12 -4.464,-0.36 -1.392,-0.192 -2.64,-0.456 -3.744,-0.792 -1.056,-0.336 -1.992,-0.672 -2.808,-1.008 -0.816,-0.336 -1.44,-0.648 -1.872,-0.936 l 1.8,-4.896 c 0.96,0.528 2.376,1.152 4.248,1.872 1.872,0.672 4.152,1.008 6.84,1.008 z"
       fill="#ffffff"
       id="path1" /></g></svg>
