<svg width="103" height="107" viewBox="0 0 103 107" fill="none" xmlns="http://www.w3.org/2000/svg">
<path d="M15.1375 45V28.44C12.2095 23.64 9.54547 18.96 7.14547 14.4C4.79347 9.84 2.72947 5.184 0.953468 0.431999H7.57747C8.96947 4.464 10.5535 8.328 12.3295 12.024C14.1535 15.672 16.0975 19.44 18.1615 23.328C20.3695 19.248 22.3135 15.384 23.9935 11.736C25.7215 8.04 27.2815 4.272 28.6735 0.431999H35.1535C33.3295 5.136 31.2415 9.72 28.8895 14.184C26.5375 18.648 23.9215 23.352 21.0415 28.296V45H15.1375ZM82.0975 45V28.44C79.1695 23.64 76.5055 18.96 74.1055 14.4C71.7535 9.84 69.6895 5.184 67.9135 0.431999H74.5375C75.9295 4.464 77.5135 8.328 79.2895 12.024C81.1135 15.672 83.0575 19.44 85.1215 23.328C87.3295 19.248 89.2735 15.384 90.9535 11.736C92.6815 8.04 94.2415 4.272 95.6335 0.431999H102.113C100.289 5.136 98.2015 9.72 95.8495 14.184C93.4975 18.648 90.8815 23.352 88.0015 28.296V45H82.0975ZM26.8735 84.04H32.7775V104.92C31.8655 105.256 30.4015 105.664 28.3855 106.144C26.3695 106.672 23.9935 106.936 21.2575 106.936C18.5695 106.936 16.1215 106.432 13.9135 105.424C11.7055 104.368 9.80947 102.856 8.22547 100.888C6.68947 98.92 5.48947 96.496 4.62547 93.616C3.76147 90.688 3.32947 87.376 3.32947 83.68C3.32947 79.936 3.80947 76.624 4.76947 73.744C5.72947 70.864 7.02547 68.44 8.65747 66.472C10.3375 64.504 12.2815 63.016 14.4895 62.008C16.6975 60.952 19.0735 60.424 21.6175 60.424C23.2495 60.424 24.6895 60.544 25.9375 60.784C27.1855 61.024 28.2415 61.312 29.1055 61.648C30.0175 61.984 30.7615 62.344 31.3375 62.728C31.9135 63.064 32.3455 63.328 32.6335 63.52L30.6895 68.488C29.5855 67.624 28.2655 66.928 26.7295 66.4C25.2415 65.824 23.6575 65.536 21.9775 65.536C20.1535 65.536 18.4495 65.968 16.8655 66.832C15.3295 67.696 14.0095 68.92 12.9055 70.504C11.8015 72.088 10.9375 74.008 10.3135 76.264C9.68947 78.472 9.37747 80.944 9.37747 83.68C9.37747 86.368 9.64147 88.816 10.1695 91.024C10.7455 93.232 11.5615 95.128 12.6175 96.712C13.6735 98.296 14.9695 99.544 16.5055 100.456C18.0895 101.32 19.8895 101.752 21.9055 101.752C23.2975 101.752 24.3775 101.656 25.1455 101.464C25.9135 101.272 26.4895 101.08 26.8735 100.888V84.04ZM83.8255 101.824C86.8495 101.824 89.1535 101.248 90.7375 100.096C92.3215 98.944 93.1135 97.216 93.1135 94.912C93.1135 93.52 92.8255 92.344 92.2495 91.384C91.6735 90.376 90.9055 89.512 89.9455 88.792C88.9855 88.024 87.9055 87.376 86.7055 86.848C85.5055 86.272 84.2815 85.744 83.0335 85.264C81.5935 84.688 80.2015 84.04 78.8575 83.32C77.5615 82.6 76.3855 81.76 75.3295 80.8C74.3215 79.84 73.5055 78.712 72.8815 77.416C72.3055 76.12 72.0175 74.584 72.0175 72.808C72.0175 68.92 73.2415 65.896 75.6895 63.736C78.1375 61.528 81.5455 60.424 85.9135 60.424C87.1135 60.424 88.2895 60.52 89.4415 60.712C90.6415 60.856 91.7455 61.048 92.7535 61.288C93.7615 61.528 94.6495 61.816 95.4175 62.152C96.2335 62.488 96.8815 62.824 97.3615 63.16L95.4895 68.128C94.5295 67.552 93.2095 66.976 91.5295 66.4C89.8495 65.824 87.9775 65.536 85.9135 65.536C83.7535 65.536 81.8815 66.088 80.2975 67.192C78.7135 68.248 77.9215 69.856 77.9215 72.016C77.9215 73.264 78.1375 74.32 78.5695 75.184C79.0495 76.048 79.6735 76.816 80.4415 77.488C81.2575 78.112 82.1935 78.688 83.2495 79.216C84.3055 79.744 85.4575 80.272 86.7055 80.8C88.5295 81.568 90.1855 82.336 91.6735 83.104C93.2095 83.872 94.5055 84.784 95.5615 85.84C96.6655 86.896 97.5055 88.144 98.0815 89.584C98.7055 91.024 99.0175 92.776 99.0175 94.84C99.0175 98.728 97.6975 101.728 95.0575 103.84C92.4655 105.904 88.7215 106.936 83.8255 106.936C82.2415 106.936 80.7535 106.816 79.3615 106.576C77.9695 106.384 76.7215 106.12 75.6175 105.784C74.5615 105.448 73.6255 105.112 72.8095 104.776C71.9935 104.44 71.3695 104.128 70.9375 103.84L72.7375 98.944C73.6975 99.472 75.1135 100.096 76.9855 100.816C78.8575 101.488 81.1375 101.824 83.8255 101.824Z" fill="white"/>
</svg>
